<svg xmlns="http://www.w3.org/2000/svg" viewBox="0 0 200 200">
  <rect width="200" height="200" fill="#0d0d1a" rx="16"/>
  <!-- 손바닥 -->
  <rect x="60" y="112" width="80" height="60" rx="18" fill="#d4a574"/>
  <!-- 중지 (펼침) -->
  <rect x="86" y="44" width="18" height="74] " rx="9" fill="#d4a574"/>
  <rect x="86" y="44" width="18" height="73" rx="9" fill="#d4a574"/>
  <!-- 약지 (펼침) -->
  <rect x="108" y="52" width="18" height="65" rx="9" fill="#d4a574"/>
  <!-- 새끼 (펼침) -->
  <rect x="128" y="64" width="16" height="53" rx="8" fill="#d4a574"/>
  <!-- 핀치: 엄지와 검지가 원을 이루며 맞닿음 -->
  <!-- 엄지 -->
  <path d="M52 125 Q48 100 60 84 Q68 74 78 80 Q86 86 82 98"
        fill="none" stroke="#d4a574" stroke-width="18" stroke-linecap="round"/>
  <!-- 검지 -->
  <path d="M70 112 Q66 90 72 76 Q78 64 86 70 Q90 76 84 88"
        fill="none" stroke="#d4a574" stroke-width="16" stroke-linecap="round"/>
  <!-- 핀치 접촉점 강조 -->
  <circle cx="82" cy="95" r="8" fill="#e8c090"/>
  <circle cx="82" cy="95" r="4" fill="#00e5a0" opacity="0.8"/>
</svg>
